<?xml version="1.0" encoding="utf-8"?>
<!-- Generator: Adobe Illustrator 16.0.0, SVG Export Plug-In . SVG Version: 6.00 Build 0)  -->
<!DOCTYPE svg PUBLIC "-//W3C//DTD SVG 1.1//EN" "http://www.w3.org/Graphics/SVG/1.1/DTD/svg11.dtd">
<svg version="1.1" id="图层_1" xmlns="http://www.w3.org/2000/svg" xmlns:xlink="http://www.w3.org/1999/xlink" x="0px" y="0px"
	 width="100px" height="100px" viewBox="0 0 100 100" enable-background="new 0 0 100 100" xml:space="preserve">
<g>
	<linearGradient id="SVGID_1_" gradientUnits="userSpaceOnUse" x1="-102.9727" y1="51.4707" x2="-17.4917" y2="51.4707">
		<stop  offset="0" style="stop-color:#6ED3C9"/>
		<stop  offset="1" style="stop-color:#00A79D"/>
	</linearGradient>
	<circle fill="url(#SVGID_1_)" cx="-60.232" cy="51.471" r="42.74"/>
	<circle fill="#6ED3C9" cx="-24.524" cy="30.159" r="14.949"/>
	<path fill="#2BC1AB" d="M-17.51,50.252l-12.997-6.389c1.833,0.802,3.855,1.247,5.984,1.247c2.26,0,4.405-0.504,6.327-1.402
		C-17.808,45.838-17.573,48.023-17.51,50.252z"/>
	<path fill="#00A79D" d="M-30.902,15.302c-3.334-2.672-7.256-5.07-11.216-6.745c-5.744-2.428-11.842-3.66-18.13-3.66
		c-6.287,0-12.387,1.232-18.129,3.66c-5.547,2.345-10.527,5.703-14.805,9.981c-4.277,4.277-7.636,9.257-9.98,14.804
		c-2.428,5.742-3.66,11.842-3.66,18.128c0,4.187,0.547,8.293,1.629,12.263c0.43-0.012,0.861,0,1.293,0c0.064,0,0.129,0,0.192,0
		c-1.099-3.896-1.688-8.021-1.688-12.263c0-24.895,20.254-45.147,45.148-45.147c10.438,0,20.332,3.723,27.988,9.691
		C-31.806,15.755-31.364,15.547-30.902,15.302z"/>
	<path fill="#6ED3C9" d="M-16.488,45.804l-0.255-1.161c5.427-3.073,8.797-8.623,8.797-14.485c0-8.923-7.391-16.181-16.475-16.181
		c-1.884,0-3.653,0.282-5.414,0.893l-1.067-0.846c1.871-0.649,4.479-1.117,6.481-1.117c9.674,0,17.546,7.739,17.546,17.251
		C-6.875,36.404-10.334,42.235-16.488,45.804z"/>
	<circle fill="none" cx="-24.524" cy="30.159" r="14.949"/>
	<circle fill="none" cx="-24.524" cy="30.159" r="14.949"/>
	<circle fill="none" cx="-24.524" cy="30.159" r="14.949"/>
	<g>
		<defs>
			<circle id="SVGID_2_" cx="-24.524" cy="30.159" r="14.949"/>
		</defs>
		<clipPath id="SVGID_3_">
			<use xlink:href="#SVGID_2_"  overflow="visible"/>
		</clipPath>
		<polygon clip-path="url(#SVGID_3_)" fill="#54CCBA" points="-31.605,39.662 -14.98,46.619 -7.218,34.496 -27.541,27.552 		"/>
	</g>
	
		<text transform="matrix(1 0 0 1 -33.9766 37.8916)" fill="#FFFFFF" font-family="'SourceHanSansCN-Bold-GBpc-EUC-H'" font-size="19.7837">万</text>
	<path fill="#E27E05" d="M-39.03,26.519c0.085-0.341,0.183-0.678,0.291-1.01l-4.102-2.016c1.115,0.566,2.173,1.346,3.173,2.336
		C-39.444,26.05-39.232,26.281-39.03,26.519z"/>
	<path fill="#00A79D" d="M-76.833,70.188l36.044,19.355c0,0,23.84-11.29,23.297-39.291l-11.988-5.831c0,0-9.498-3.511-9.991-14.045
		c-0.491-10.535-0.002-0.217-0.002-0.217l-2.656-3.64l-16.296,0.944l-13.002-3.69c0,0,2.91,3.691,4.357,10.542
		c1.443,6.853,1.203,12.666,1.203,12.666l-0.602,10.452l-3.373,7.469L-76.833,70.188z"/>
	<path fill="#FFFFFF" d="M-65.502,27.604c-0.203-0.239-0.416-0.469-0.64-0.69c-0.999-0.991-2.058-1.771-3.173-2.336l-0.251-0.123
		c-1.425-0.681-2.942-1.021-4.555-1.021c-2.997,0-5.661,1.16-7.993,3.48c-0.832,0.83-1.518,1.782-2.053,2.86
		c-0.963,1.937-1.443,4.271-1.443,7.007v20.433c0,3.566,0.818,6.449,2.454,8.648c0.315,0.428,0.663,0.829,1.042,1.202
		c0.99,0.979,2.04,1.752,3.148,2.315l0.271,0.132c1.429,0.679,2.952,1.018,4.574,1.018c2.979,0,5.638-1.156,7.979-3.465
		c2.34-2.308,3.51-5.593,3.51-9.851V40.631V36.78C-62.632,32.928-63.59,29.871-65.502,27.604z M-68.431,56.831
		c0,2.245-0.524,3.99-1.568,5.228c-1.046,1.239-2.419,1.857-4.121,1.857c-1.721,0-3.1-0.618-4.135-1.857
		c-1.036-1.237-1.554-2.982-1.554-5.228v-19.67c0-1.921,0.386-3.48,1.16-4.675c0.121-0.188,0.252-0.367,0.394-0.537
		c1.035-1.249,2.414-1.874,4.135-1.874c1.702,0,3.075,0.625,4.121,1.874c1.044,1.25,1.568,2.988,1.568,5.211V56.831z"/>
	<path fill="#FFFFFF" d="M-40.272,41.625c-0.732-0.906-1.723-1.695-2.979-2.37c-1.254-0.674-2.643-1.011-4.162-1.011
		c-2.435,0-4.567,0.843-6.4,2.528V30.375h15.904v-6.603h-21.313v24.899h5.409c1.227-2.549,2.95-3.824,5.164-3.824
		c2.363,0,3.918,0.843,4.671,2.527c0.751,1.686,1.125,3.803,1.125,6.352c0,2.17-0.237,4.358-0.713,6.572
		c-0.478,2.211-2.117,3.318-4.918,3.318c-3.149,0-5.063-1.792-5.741-5.373h-5.739c0.42,4.299,1.831,7.363,4.229,9.194
		c2.4,1.834,4.891,2.749,7.474,2.749c1.994,0,3.735-0.517,5.218-1.547c1.483-1.032,2.638-2.149,3.462-3.35
		c0.858-1.265,1.486-2.649,1.88-4.155c0.395-1.507,0.591-3.808,0.591-6.904c0-3.812-0.252-6.524-0.755-8.136
		C-38.372,44.484-39.173,42.994-40.272,41.625z"/>
</g>
<g>
	<linearGradient id="SVGID_4_" gradientUnits="userSpaceOnUse" x1="3.8516" y1="51.6055" x2="89.3896" y2="51.6055">
		<stop  offset="0" style="stop-color:#FBB040"/>
		<stop  offset="1" style="stop-color:#E27E05"/>
	</linearGradient>
	<circle fill="url(#SVGID_4_)" cx="46.621" cy="51.605" r="42.769"/>
	<circle fill="#FBB040" cx="82.355" cy="30.28" r="14.96"/>
	<path fill="#EF922E" d="M89.373,50.386l-13.006-6.392c1.834,0.801,3.858,1.246,5.987,1.246c2.264,0,4.409-0.502,6.331-1.402
		C89.077,45.969,89.311,48.157,89.373,50.386z"/>
	<path fill="#E27E05" d="M75.972,15.413c-3.335-2.674-7.263-5.074-11.225-6.75C59.001,6.232,52.897,5,46.606,5
		S34.211,6.232,28.465,8.663c-5.55,2.348-10.534,5.708-14.814,9.988c-4.279,4.28-7.641,9.264-9.987,14.814
		C1.232,39.211,0,45.314,0,51.605c0,4.191,0.548,8.297,1.631,12.271c0.431-0.012,0.862,0,1.294,0c0.064,0,0.129,0,0.193,0
		c-1.101-3.898-1.689-8.025-1.689-12.271c0-24.911,20.267-45.177,45.178-45.177c10.444,0,20.345,3.724,28.006,9.698
		C75.067,15.866,75.508,15.658,75.972,15.413z"/>
	<path fill="#FBB040" d="M90.394,45.935l-0.254-1.162c5.432-3.076,8.805-8.63,8.805-14.496c0-8.929-7.396-16.192-16.487-16.192
		c-1.885,0-3.656,0.284-5.417,0.894l-1.068-0.848c1.872-0.649,4.48-1.118,6.485-1.118c9.682,0,17.559,7.744,17.559,17.263
		C100.016,36.529,96.554,42.364,90.394,45.935z"/>
	<circle fill="none" cx="82.355" cy="30.28" r="14.96"/>
	<circle fill="none" cx="82.355" cy="30.28" r="14.96"/>
	<g>
		<defs>
			<circle id="SVGID_5_" cx="82.355" cy="30.28" r="14.96"/>
		</defs>
		<clipPath id="SVGID_6_">
			<use xlink:href="#SVGID_5_"  overflow="visible"/>
		</clipPath>
		<polygon clip-path="url(#SVGID_6_)" fill="#F99F28" points="75.267,39.789 91.903,46.751 99.672,34.619 79.335,27.672 		"/>
	</g>
	
		<text transform="matrix(1 0 0 1 72.8975 38.0171)" fill="#FFFFFF" font-family="'SourceHanSansCN-Bold-GBpc-EUC-H'" font-size="19.7969">万</text>
	<g>
		<path fill="#FFFFFF" d="M67.528,26.639c-0.202-0.238-0.415-0.469-0.639-0.691c-1-0.991-2.059-1.771-3.175-2.337l-0.252-0.124
			c-1.425-0.681-2.944-1.021-4.558-1.021c-2.999,0-5.666,1.16-7.998,3.482c-0.834,0.83-1.519,1.784-2.054,2.863
			c-0.965,1.937-1.445,4.273-1.445,7.011V56.27c0,3.568,0.819,6.453,2.456,8.654c0.316,0.426,0.664,0.828,1.043,1.201
			c0.99,0.982,2.04,1.756,3.151,2.318l0.27,0.133c1.429,0.678,2.955,1.016,4.577,1.016c2.98,0,5.641-1.154,7.984-3.467
			c2.341-2.311,3.512-5.596,3.512-9.855V39.676v-3.854C70.401,31.967,69.442,28.908,67.528,26.639z M64.599,55.887
			c0,2.248-0.524,3.992-1.57,5.23c-1.046,1.24-2.42,1.861-4.123,1.861c-1.722,0-3.102-0.621-4.138-1.861
			c-1.038-1.238-1.555-2.982-1.555-5.23V36.203c0-1.923,0.387-3.483,1.161-4.678c0.121-0.188,0.252-0.368,0.394-0.537
			c1.036-1.25,2.416-1.876,4.138-1.876c1.703,0,3.077,0.626,4.123,1.876c1.046,1.251,1.57,2.989,1.57,5.215V55.887z"/>
		<polygon fill="#FFFFFF" points="25.677,27.653 25.677,34.736 31.448,29.886 31.448,69.42 37.276,69.42 37.276,22.835 
			31.448,22.835 		"/>
	</g>
	<path fill="#E27E05" d="M89.078,51.605c0-0.408-0.005-0.814-0.018-1.219l-13.005-6.393l-0.004-0.001l-1.174-0.576
		c-1.727-0.944-3.248-2.219-4.477-3.74V56.27c0,4.26-1.171,7.545-3.512,9.855c-2.344,2.313-5.004,3.467-7.984,3.467
		c-1.622,0-3.148-0.338-4.577-1.016l0,0c-0.09-0.043-0.181-0.086-0.27-0.133c-1.111-0.563-2.161-1.336-3.151-2.316
		c-0.378-0.375-0.727-0.777-1.043-1.203c-1.637-2.199-2.455-5.086-2.455-8.654V35.822c0-2.737,0.479-5.074,1.444-7.011
		c0.18-0.359,0.373-0.706,0.585-1.038l-1.074-0.529l-11.088-4.41V69.42h-5.828l35.697,16.506l2.759,1.355
		c3.013-1.994,5.757-4.361,8.168-7.035l0,0C84.914,72.664,89.078,62.621,89.078,51.605z"/>
</g>
<g>
	<linearGradient id="SVGID_7_" gradientUnits="userSpaceOnUse" x1="112.4102" y1="51.3262" x2="197.6641" y2="51.3262">
		<stop  offset="0" style="stop-color:#FBB040"/>
		<stop  offset="1" style="stop-color:#E27E05"/>
	</linearGradient>
	<circle fill="url(#SVGID_7_)" cx="155.037" cy="51.326" r="42.627"/>
	<circle fill="#FBB040" cx="190.652" cy="30.07" r="14.91"/>
	<path fill="#EF922E" d="M197.646,50.109l-12.962-6.371c1.827,0.799,3.846,1.242,5.967,1.242c2.256,0,4.396-0.501,6.311-1.397
		C197.352,45.708,197.585,47.888,197.646,50.109z"/>
	<path fill="#E27E05" d="M184.29,15.253c-3.323-2.666-7.238-5.058-11.187-6.728c-5.728-2.422-11.811-3.65-18.08-3.65
		c-6.271,0-12.354,1.228-18.082,3.65c-5.531,2.34-10.498,5.689-14.765,9.955c-4.266,4.266-7.615,9.233-9.954,14.765
		c-2.423,5.727-3.65,11.811-3.65,18.082c0,4.176,0.545,8.268,1.625,12.23c0.43-0.014,0.859,0,1.29,0c0.063,0,0.128-0.002,0.191,0
		c-1.096-3.887-1.683-8-1.683-12.23c0-24.829,20.198-45.028,45.027-45.028c10.409,0,20.277,3.712,27.911,9.666
		C183.389,15.705,183.828,15.497,184.29,15.253z"/>
	<path fill="#FBB040" d="M198.665,45.674l-0.253-1.158c5.412-3.065,8.775-8.601,8.775-14.448c0-8.898-7.372-16.138-16.435-16.138
		c-1.878,0-3.643,0.282-5.397,0.891l-1.065-0.845c1.867-0.647,4.466-1.114,6.463-1.114c9.65,0,17.501,7.718,17.501,17.205
		C208.254,36.298,204.805,42.115,198.665,45.674z"/>
	<circle fill="none" cx="190.652" cy="30.07" r="14.91"/>
	<circle fill="none" cx="190.652" cy="30.07" r="14.91"/>
	<g>
		<defs>
			<circle id="SVGID_8_" cx="190.652" cy="30.07" r="14.91"/>
		</defs>
		<clipPath id="SVGID_9_">
			<use xlink:href="#SVGID_8_"  overflow="visible"/>
		</clipPath>
		<polygon clip-path="url(#SVGID_9_)" fill="#F99F28" points="183.588,39.548 200.17,46.487 207.912,34.396 187.643,27.472 		"/>
	</g>
	
		<text transform="matrix(1 0 0 1 181.2256 37.7832)" fill="#FFFFFF" font-family="'SourceHanSansCN-Bold-GBpc-EUC-H'" font-size="19.731">万</text>
	<g>
		<path fill="#FFFFFF" d="M153.858,35.529c0-3.654-1.12-6.777-3.361-9.365c-0.909-1.049-1.908-1.885-2.999-2.51l-0.008-0.004
			c-0.364-0.206-0.739-0.391-1.123-0.551c-1.307-0.546-2.729-0.818-4.27-0.818c-3.045,0-5.675,1.284-7.889,3.851
			c-2.215,2.567-3.331,5.72-3.35,9.461h0.001h5.784c0.129-2.071,0.751-3.703,1.867-4.897c1.116-1.193,2.459-1.79,4.027-1.79
			c1.716,0,3.072,0.691,4.069,2.075c0.997,1.384,1.494,2.88,1.494,4.485c0,0.697-0.092,1.416-0.276,2.155
			c-0.186,0.739-0.581,1.553-1.19,2.439l-1.708,2.447l-14.068,20.151v6.213h0.001h22.998v-0.002v-6.592h-15.388l12.98-18.635
			C153.056,41.361,153.858,38.656,153.858,35.529z"/>
		<path fill="#FFFFFF" d="M176.185,26.44c-0.202-0.238-0.414-0.468-0.638-0.689c-0.997-0.988-2.052-1.765-3.164-2.33l-0.25-0.124
			c-1.422-0.678-2.936-1.017-4.543-1.017c-2.989,0-5.647,1.156-7.973,3.47c-0.831,0.828-1.514,1.779-2.046,2.853
			c-0.962,1.931-1.44,4.259-1.44,6.988v20.378c0,3.559,0.816,6.432,2.448,8.627c0.313,0.426,0.661,0.824,1.038,1.197
			c0.988,0.977,2.034,1.75,3.141,2.309l0.27,0.135c1.424,0.676,2.945,1.012,4.563,1.012c2.971,0,5.621-1.15,7.957-3.455
			c2.333-2.303,3.501-5.576,3.501-9.824V39.434v-3.841C179.048,31.751,178.092,28.701,176.185,26.44z M173.264,55.59
			c0,2.24-0.522,3.979-1.564,5.215c-1.043,1.236-2.412,1.854-4.109,1.854c-1.717,0-3.092-0.617-4.125-1.854
			s-1.549-2.975-1.549-5.215V35.972c0-1.917,0.385-3.471,1.157-4.663c0.121-0.187,0.252-0.366,0.392-0.535
			c1.033-1.246,2.408-1.869,4.125-1.869c1.697,0,3.066,0.624,4.109,1.869c1.042,1.247,1.564,2.979,1.564,5.198V55.59z"/>
	</g>
	<path fill="#E27E05" d="M197.646,50.107l-12.963-6.371l-0.003-0.001l-1.17-0.575c-1.722-0.94-3.237-2.211-4.462-3.727v16.537
		c0,4.248-1.168,7.521-3.501,9.824c-2.336,2.305-4.986,3.455-7.957,3.455c-1.617,0-3.139-0.336-4.563-1.012
		c-0.09-0.043-0.18-0.088-0.27-0.135c-1.106-0.559-2.152-1.332-3.141-2.309c-0.377-0.373-0.725-0.771-1.038-1.197
		c-1.632-2.195-2.448-5.068-2.448-8.627V35.593c0-2.729,0.479-5.057,1.44-6.988l-10.073-4.951c1.091,0.625,2.09,1.46,2.999,2.51
		c2.241,2.588,3.361,5.711,3.361,9.365c0,3.127-0.803,5.832-2.407,8.113l-12.98,18.635h15.388v6.592v0.002H130.86l42.567,20.92
		c3.568-1.709,6.861-3.9,9.795-6.49c1.222-1.076,2.381-2.223,3.471-3.432c6.818-7.557,10.969-17.566,10.969-28.545
		C197.662,50.916,197.656,50.512,197.646,50.107z"/>
	<path fill="#E27E05" d="M176.185,26.44c0.085-0.341,0.181-0.677,0.289-1.007l-4.091-2.011c1.112,0.564,2.167,1.342,3.164,2.33
		C175.771,25.973,175.982,26.203,176.185,26.44z"/>
	<path fill="#E27E05" d="M167.59,62.658c1.697,0,3.066-0.617,4.109-1.854c1.042-1.236,1.564-2.975,1.564-5.215V35.972
		c0-2.218-0.522-3.951-1.564-5.198c-1.043-1.246-2.412-1.869-4.109-1.869c-1.717,0-3.092,0.624-4.125,1.869
		c-0.14,0.169-0.271,0.348-0.392,0.535c-0.772,1.192-1.157,2.746-1.157,4.663V55.59c0,2.24,0.516,3.979,1.549,5.215
		S165.873,62.658,167.59,62.658z"/>
	<path fill="#E27E05" d="M146.636,40.06c0.609-0.887,1.005-1.7,1.19-2.439c0.185-0.739,0.276-1.458,0.276-2.155
		c0-1.604-0.497-3.101-1.494-4.485c-0.997-1.384-2.354-2.075-4.069-2.075c-1.568,0-2.911,0.597-4.027,1.79
		c-1.116,1.195-1.738,2.826-1.867,4.897h-5.784l14.067,6.914L146.636,40.06z"/>
</g>
<g>
	<linearGradient id="SVGID_10_" gradientUnits="userSpaceOnUse" x1="217.9609" y1="51.3203" x2="303.2061" y2="51.3203">
		<stop  offset="0" style="stop-color:#2EADF3"/>
		<stop  offset="1" style="stop-color:#0971F8"/>
	</linearGradient>
	<circle fill="url(#SVGID_10_)" cx="260.583" cy="51.32" r="42.623"/>
	<circle fill="#4BA7F9" cx="296.194" cy="30.068" r="14.909"/>
	<path fill="#1E9ED6" d="M303.189,50.105l-12.962-6.37c1.827,0.799,3.846,1.243,5.967,1.243c2.256,0,4.394-0.501,6.31-1.398
		C302.894,45.704,303.126,47.884,303.189,50.105z"/>
	<g>
		<path fill="#FFFFFF" d="M259.406,35.528c0-3.655-1.119-6.776-3.36-9.364c-0.908-1.05-1.909-1.885-3-2.509l-0.008-0.004
			c-0.363-0.207-0.738-0.392-1.122-0.551c-1.306-0.545-2.729-0.817-4.271-0.817c-3.044,0-5.673,1.283-7.887,3.851
			c-2.215,2.567-3.331,5.72-3.351,9.459h0.003h5.782c0.129-2.071,0.752-3.703,1.868-4.896c1.116-1.192,2.459-1.791,4.026-1.791
			c1.717,0,3.071,0.691,4.068,2.076c0.998,1.384,1.494,2.88,1.494,4.484c0,0.697-0.092,1.416-0.276,2.154
			c-0.185,0.74-0.58,1.553-1.189,2.44l-1.707,2.446l-14.069,20.149v6.211h0.003h22.995l0,0v-6.592h-15.386L257,43.641
			C258.604,41.359,259.406,38.655,259.406,35.528z"/>
		<path fill="#FFFFFF" d="M281.729,26.44c-0.202-0.238-0.414-0.469-0.637-0.689c-0.996-0.987-2.053-1.765-3.163-2.329l-0.251-0.124
			c-1.421-0.678-2.936-1.017-4.542-1.017c-2.989,0-5.646,1.156-7.972,3.47c-0.83,0.828-1.513,1.778-2.047,2.853
			c-0.961,1.931-1.439,4.259-1.439,6.987v20.377c0,3.557,0.816,6.432,2.448,8.625c0.313,0.426,0.661,0.824,1.038,1.197
			c0.988,0.977,2.034,1.748,3.14,2.311l0.27,0.133c1.425,0.674,2.944,1.012,4.563,1.012c2.97,0,5.621-1.15,7.956-3.455
			c2.333-2.301,3.5-5.576,3.5-9.822V39.432v-3.841C284.593,31.75,283.637,28.7,281.729,26.44z M278.809,55.588
			c0,2.238-0.521,3.979-1.563,5.213s-2.411,1.854-4.108,1.854c-1.717,0-3.092-0.619-4.124-1.854c-1.033-1.234-1.55-2.975-1.55-5.213
			V35.971c0-1.917,0.386-3.47,1.157-4.662c0.121-0.187,0.252-0.366,0.393-0.535c1.032-1.246,2.407-1.869,4.124-1.869
			c1.697,0,3.065,0.624,4.108,1.869c1.043,1.247,1.563,2.979,1.563,5.197V55.588z"/>
	</g>
	<g>
		<path fill="#0784E2" d="M303.189,50.105l-12.962-6.37l-0.004-0.001l-1.169-0.575c-1.722-0.941-3.238-2.211-4.462-3.727v16.537
			c0,4.246-1.167,7.521-3.5,9.822c-2.335,2.305-4.986,3.455-7.956,3.455c-1.618,0-3.138-0.338-4.563-1.012
			c-0.09-0.043-0.18-0.086-0.27-0.133c-1.105-0.563-2.151-1.334-3.14-2.311c-0.377-0.373-0.725-0.771-1.038-1.197
			c-1.632-2.193-2.448-5.068-2.448-8.625V35.591c0-2.729,0.479-5.057,1.439-6.987l-10.072-4.95c1.091,0.624,2.092,1.459,3,2.509
			c2.241,2.588,3.36,5.709,3.36,9.364c0,3.127-0.802,5.832-2.406,8.113l-12.979,18.633h15.386v6.592l0,0h-22.995l42.562,20.918
			c3.569-1.709,6.862-3.898,9.796-6.488c1.221-1.076,2.38-2.223,3.469-3.432c6.818-7.557,10.969-17.564,10.969-28.543
			C303.206,50.914,303.2,50.509,303.189,50.105z"/>
		<path fill="#0784E2" d="M281.729,26.44c0.086-0.341,0.182-0.677,0.29-1.008l-4.09-2.011c1.11,0.564,2.167,1.342,3.163,2.329
			C281.315,25.972,281.527,26.203,281.729,26.44z"/>
		<path fill="#0784E2" d="M273.137,62.654c1.697,0,3.065-0.619,4.108-1.854s1.563-2.975,1.563-5.213V35.971
			c0-2.218-0.521-3.951-1.563-5.197c-1.043-1.246-2.411-1.869-4.108-1.869c-1.717,0-3.092,0.624-4.124,1.869
			c-0.141,0.169-0.271,0.349-0.393,0.535c-0.771,1.192-1.157,2.746-1.157,4.662v19.617c0,2.238,0.517,3.979,1.55,5.213
			C270.045,62.035,271.42,62.654,273.137,62.654z"/>
		<path fill="#0784E2" d="M252.185,40.059c0.609-0.887,1.005-1.701,1.189-2.44c0.185-0.738,0.276-1.458,0.276-2.154
			c0-1.604-0.496-3.101-1.494-4.484c-0.997-1.384-2.352-2.076-4.068-2.076c-1.567,0-2.91,0.599-4.026,1.791
			c-1.116,1.194-1.739,2.825-1.868,4.896h-5.782l14.066,6.914L252.185,40.059z"/>
	</g>
	<path fill="#2F9BDD" d="M289.832,15.252c-3.323-2.665-7.235-5.057-11.186-6.727c-5.726-2.422-11.809-3.65-18.078-3.65
		s-12.353,1.228-18.079,3.65c-5.531,2.339-10.498,5.688-14.764,9.953c-4.265,4.266-7.614,9.233-9.953,14.764
		c-2.422,5.727-3.65,11.81-3.65,18.078c0,4.178,0.547,8.27,1.626,12.23c0.429-0.012,0.858,0,1.289,0c0.064,0,0.128,0,0.191,0
		c-1.096-3.885-1.683-7.998-1.683-12.23c0-24.825,20.196-45.021,45.022-45.021c10.409,0,20.276,3.711,27.91,9.665
		C288.933,15.705,289.371,15.496,289.832,15.252z"/>
	<path fill="#4BA7F9" d="M304.206,45.669l-0.253-1.157c5.412-3.065,8.774-8.6,8.774-14.446c0-8.897-7.371-16.136-16.431-16.136
		c-1.879,0-3.645,0.282-5.399,0.891l-1.065-0.845c1.866-0.647,4.467-1.114,6.465-1.114c9.647,0,17.498,7.717,17.498,17.204
		C313.795,36.296,310.346,42.111,304.206,45.669z"/>
	<circle fill="none" cx="296.194" cy="30.068" r="14.909"/>
	<g>
		<defs>
			<circle id="SVGID_11_" cx="296.194" cy="30.068" r="14.909"/>
		</defs>
		<clipPath id="SVGID_12_">
			<use xlink:href="#SVGID_11_"  overflow="visible"/>
		</clipPath>
		<polygon clip-path="url(#SVGID_12_)" fill="#39A1E2" points="289.13,39.544 305.711,46.483 313.452,34.393 293.186,27.47 		"/>
	</g>
	
		<text transform="matrix(1 0 0 1 286.7695 37.7783)" fill="#FFFFFF" font-family="'SourceHanSansCN-Bold-GBpc-EUC-H'" font-size="19.729">万</text>
</g>
</svg>
