<svg xmlns="http://www.w3.org/2000/svg" xmlns:xlink="http://www.w3.org/1999/xlink" preserveAspectRatio="xMidYMid" width="20" height="19" viewBox="0 0 20 19">
  <defs>
    <style>
      .cls-1 {
        fill: #fff;
      }

      .cls-2 {
        fill: #e95757;
        fill-rule: evenodd;
      }
    </style>
  </defs>
  <g>
    <circle cx="9.72" cy="9.531" r="4.5" class="cls-1"/>
    <path d="M11.610,2.096 C11.554,2.117 11.493,2.125 11.435,2.140 C12.252,2.321 13.034,2.597 13.763,2.956 C15.314,3.641 16.612,4.758 17.416,6.184 C17.800,6.794 18.105,7.457 18.314,8.165 C19.654,12.703 16.579,17.385 11.447,18.623 C7.838,19.493 2.327,18.866 0.002,16.581 C1.868,17.577 6.025,17.483 8.310,16.932 C8.368,16.918 8.427,16.903 8.485,16.888 C7.668,16.707 6.886,16.431 6.157,16.072 C4.606,15.386 3.308,14.270 2.504,12.844 C2.120,12.234 1.815,11.571 1.606,10.863 C0.266,6.325 3.340,1.643 8.473,0.405 C12.082,-0.466 17.676,0.019 20.000,2.305 C18.135,1.309 14.100,1.193 11.610,2.096 ZM6.873,7.696 C5.925,9.327 6.547,11.446 8.263,12.430 C9.980,13.413 12.140,12.888 13.089,11.257 C14.037,9.627 13.415,7.507 11.699,6.524 C9.982,5.541 7.822,6.065 6.873,7.696 Z" class="cls-2"/>
  </g>
</svg>
