<svg xmlns="http://www.w3.org/2000/svg" xmlns:xlink="http://www.w3.org/1999/xlink" preserveAspectRatio="xMidYMid" width="20" height="38" viewBox="0 0 20 38">
  <defs>
    <style>
      .cls-1 {
        fill: #fff;
      }

      .cls-2 {
        fill: #e95757;
        fill-rule: evenodd;
      }
    </style>
  </defs>
  <g>
    <circle cx="9.5" cy="19.5" r="5.5" class="cls-1"/>
    <path d="M20.000,19.000 L20.000,19.000 C20.000,13.229 15.523,8.550 10.000,8.550 C9.844,8.550 9.689,8.555 9.535,8.563 C9.492,8.565 9.448,8.568 9.405,8.571 C9.293,8.578 9.182,8.586 9.072,8.597 C9.023,8.602 8.975,8.606 8.926,8.611 C8.786,8.627 8.645,8.645 8.506,8.667 C9.076,4.369 12.172,0.917 16.178,0.000 C7.158,1.089 0.137,9.033 0.003,18.717 C0.005,18.668 0.008,18.620 0.010,18.572 C0.005,18.714 -0.000,18.856 -0.000,19.000 L-0.000,19.000 L-0.000,19.000 C-0.000,24.771 4.477,29.449 10.000,29.449 C10.156,29.449 10.310,29.444 10.464,29.437 C10.508,29.435 10.551,29.432 10.595,29.429 C10.706,29.422 10.818,29.413 10.928,29.403 C10.977,29.398 11.025,29.394 11.073,29.388 C11.214,29.373 11.355,29.355 11.494,29.333 C10.924,33.631 7.828,37.083 3.822,38.000 C12.842,36.911 19.863,28.967 19.996,19.283 C19.995,19.332 19.991,19.379 19.990,19.428 C19.995,19.286 20.000,19.144 20.000,19.000 L20.000,19.000 ZM10.000,23.690 C7.521,23.690 5.512,21.590 5.512,19.000 C5.512,16.410 7.521,14.310 10.000,14.310 C12.479,14.310 14.488,16.410 14.488,19.000 C14.488,21.590 12.479,23.690 10.000,23.690 Z" class="cls-2"/>
  </g>
</svg>
